<?xml version="1.0" encoding="iso-8859-1"?>
<!-- Generator: Adobe Illustrator 19.0.0, SVG Export Plug-In . SVG Version: 6.00 Build 0)  -->
<svg xmlns="http://www.w3.org/2000/svg" xmlns:xlink="http://www.w3.org/1999/xlink" version="1.1" id="Layer_1" x="0px" y="0px" viewBox="0 0 512 512" style="enable-background:new 0 0 512 512;" xml:space="preserve" width="512" height="512">
<g>
	<path style="fill:#FFCEBF;" d="M386.902,322.816c-44.7,81.599-125.003,138.6-216.204,156.899l-6.899,1.5l-8.101-3.898   C67.8,406.816,13.198,306.017,2.102,195.617C0.601,181.816,0,167.717,0,153.616v-17.999c0-31.201,13.799-60.3,37.5-80.4   c23.701-20.101,55.203-28.2,86.4-22.8c43.502,7.5,78.3,43.5,84.899,87.299c4.2,27.001-2.399,54.3-17.999,75.901   c-2.399,3.9-5.402,7.5-8.397,10.8c14.7,15,24.298,36.301,26.997,60c1.802,17.999-0.601,36-6.599,52.8   c32.102-4.2,64.102-16.8,88.997-38.101L386.902,322.816z"/>
	<path style="fill:#FFB99C;" d="M291.797,281.116l95.105,41.7c-44.7,81.599-125.003,138.6-216.204,156.899l-6.899,1.5l-8.101-3.898   C67.8,406.816,13.198,306.017,2.102,195.617H190.8c-2.399,3.9-5.402,7.5-8.397,10.8c14.7,15,24.298,36.301,26.997,60   c1.802,17.999-0.601,36-6.599,52.8C234.902,315.016,266.902,302.417,291.797,281.116z"/>
	<path style="fill:#61729B;" d="M377,60.617c-74.399,0-135,60.599-135,135c0,74.399,60.601,135,135,135s135-60.601,135-135   C512,121.216,451.399,60.617,377,60.617z"/>
	<path style="fill:#47568C;" d="M512,195.617c0,74.399-60.601,135-135,135s-135-60.601-135-135H512z"/>
	
		<rect x="317.383" y="143.499" transform="matrix(0.7071 0.7071 -0.7071 0.7071 211.6236 -193.9092)" style="fill:#47568C;" width="44.995" height="29.997"/>
	
		<rect x="391.622" y="217.738" transform="matrix(0.7071 0.7071 -0.7071 0.7071 285.8618 -224.6597)" style="fill:#2C3B73;" width="44.995" height="29.997"/>
	
		<rect x="324.882" y="210.238" transform="matrix(0.7071 0.7071 -0.7071 0.7071 264.118 -172.1653)" style="fill:#2C3B73;" width="29.997" height="44.995"/>
	
		<rect x="399.121" y="136" transform="matrix(0.7071 0.7071 -0.7071 0.7071 233.3674 -246.4036)" style="fill:#47568C;" width="29.997" height="44.995"/>
	<path style="fill:#47568C;" d="M377,150.617c-24.902,0-45,20.099-45,45c0,24.899,20.098,45,45,45s45-20.101,45-45   C422,170.716,401.902,150.617,377,150.617z"/>
	<path style="fill:#2C3B73;" d="M422,195.617c0,24.899-20.098,45-45,45s-45-20.101-45-45H422z"/>
</g>















</svg>
